<svg width="48" height="48" viewBox="0 0 48 48" fill="none" xmlns="http://www.w3.org/2000/svg">
<mask id="mask0_1065_2652" style="mask-type:alpha" maskUnits="userSpaceOnUse" x="0" y="0" width="48" height="48">
<path d="M0 24C0 10.7452 10.7452 0 24 0C37.2548 0 48 10.7452 48 24C48 37.2548 37.2548 48 24 48C10.7452 48 0 37.2548 0 24Z" fill="#F1F1F1"/>
</mask>
<g mask="url(#mask0_1065_2652)">
<path d="M3.81152 -0.000188828V29.4531H14.5515L23.9999 13.0893H47.9998V-0.000188828H3.81152ZM3.81152 -0.000188828V29.4531H14.5515L23.9999 13.0893H47.9998V-0.000188828H3.81152Z" fill="#DB4437"/>
<path d="M0 47.999H22.844L33.4483 37.3947V29.4556L14.5514 29.4526L0 4.49558V47.999ZM0 47.999H22.844L33.4483 37.3947V29.4556L14.5514 29.4526L0 4.49558V47.999Z" fill="#0F9D58"/>
<path d="M23.9997 13.0892L33.4482 29.4531L22.8469 48H47.9996V13.0892H23.9997ZM23.9997 13.0892L33.4482 29.4531L22.8469 48H47.9996V13.0892H23.9997Z" fill="#FFCD40"/>
<path d="M23.9998 13.0893C30.0256 13.0893 34.9102 17.9744 34.9102 23.9997C34.9102 30.0255 30.0256 34.9106 23.9998 34.9106C17.974 34.9106 13.0894 30.0255 13.0894 23.9997C13.0894 17.9744 17.974 13.0893 23.9998 13.0893Z" fill="#F1F1F1"/>
<path d="M23.9998 15.2709C28.8204 15.2709 32.7281 19.1787 32.7281 23.9992C32.7281 28.8198 28.8204 32.7275 23.9998 32.7275C19.1793 32.7275 15.2715 28.8198 15.2715 23.9992C15.2715 19.1787 19.1793 15.2709 23.9998 15.2709Z" fill="#4285F4"/>
</g>
</svg>
