<svg width="48" height="48" viewBox="0 0 48 48" fill="none" xmlns="http://www.w3.org/2000/svg">
<g clip-path="url(#clip0_1065_2679)">
<path d="M43.3313 35.7188C42.6877 36.0533 42.0239 36.3476 41.3438 36.6C39.1905 37.4015 36.9102 37.808 34.6126 37.8C25.7438 37.8 18.0188 31.7063 18.0188 23.8688C18.0304 22.8193 18.3213 21.7918 18.8618 20.8921C19.4023 19.9925 20.1727 19.253 21.0938 18.75C13.0688 19.0875 11.0063 27.45 11.0063 32.3438C11.0063 46.2188 23.7751 47.6063 26.5313 47.6063C28.0126 47.6063 30.2438 47.175 31.5938 46.7438L31.8376 46.6688C37.004 44.8833 41.4083 41.3916 44.3251 36.7688C44.4099 36.6283 44.4463 36.4639 44.4287 36.3008C44.4111 36.1377 44.3405 35.9848 44.2277 35.8657C44.1149 35.7465 43.9662 35.6676 43.8043 35.6411C43.6424 35.6146 43.4763 35.6418 43.3313 35.7188Z" fill="url(#paint0_linear_1065_2679)"/>
<path opacity="0.35" d="M43.3313 35.7188C42.6877 36.0533 42.0239 36.3476 41.3438 36.6C39.1905 37.4015 36.9102 37.808 34.6126 37.8C25.7438 37.8 18.0188 31.7063 18.0188 23.8688C18.0304 22.8193 18.3213 21.7918 18.8618 20.8921C19.4023 19.9925 20.1727 19.253 21.0938 18.75C13.0688 19.0875 11.0063 27.45 11.0063 32.3438C11.0063 46.2188 23.7751 47.6063 26.5313 47.6063C28.0126 47.6063 30.2438 47.175 31.5938 46.7438L31.8376 46.6688C37.004 44.8833 41.4083 41.3916 44.3251 36.7688C44.4099 36.6283 44.4463 36.4639 44.4287 36.3008C44.4111 36.1377 44.3405 35.9848 44.2277 35.8657C44.1149 35.7465 43.9662 35.6676 43.8043 35.6411C43.6424 35.6146 43.4763 35.6418 43.3313 35.7188Z" fill="url(#paint1_radial_1065_2679)"/>
<path d="M19.8188 45.2436C18.1498 44.207 16.7032 42.8495 15.5626 41.2498C14.2601 39.467 13.3635 37.4208 12.9358 35.2548C12.5081 33.0887 12.5596 30.8553 13.0866 28.7113C13.6137 26.5672 14.6036 24.5645 15.9869 22.8436C17.3701 21.1228 19.1132 19.7255 21.0938 18.7498C21.6938 18.4686 22.6876 17.9811 24.0188 17.9998C24.9556 18.0071 25.878 18.2308 26.7139 18.6537C27.5499 19.0765 28.2767 19.687 28.8376 20.4373C29.592 21.4518 30.0055 22.6793 30.0188 23.9436C30.0188 23.9061 34.6126 9.01855 15.0188 9.01855C6.78757 9.01855 0.018818 16.8186 0.018818 23.6811C-0.0139222 27.3061 0.761089 30.8929 2.28757 34.1811C4.78745 39.5042 9.15482 43.7242 14.5606 46.04C19.9664 48.3558 26.0344 48.6062 31.6126 46.7436C29.6583 47.3608 27.5933 47.5463 25.5603 47.2873C23.5272 47.0283 21.5747 46.331 19.8376 45.2436H19.8188Z" fill="url(#paint2_linear_1065_2679)"/>
<path opacity="0.41" d="M19.8188 45.2436C18.1498 44.207 16.7032 42.8495 15.5626 41.2498C14.2601 39.467 13.3635 37.4208 12.9358 35.2548C12.5081 33.0887 12.5596 30.8553 13.0866 28.7113C13.6137 26.5672 14.6036 24.5645 15.9869 22.8436C17.3701 21.1228 19.1132 19.7255 21.0938 18.7498C21.6938 18.4686 22.6876 17.9811 24.0188 17.9998C24.9556 18.0071 25.878 18.2308 26.7139 18.6537C27.5499 19.0765 28.2767 19.687 28.8376 20.4373C29.592 21.4518 30.0055 22.6793 30.0188 23.9436C30.0188 23.9061 34.6126 9.01855 15.0188 9.01855C6.78757 9.01855 0.018818 16.8186 0.018818 23.6811C-0.0139222 27.3061 0.761089 30.8929 2.28757 34.1811C4.78745 39.5042 9.15482 43.7242 14.5606 46.04C19.9664 48.3558 26.0344 48.6062 31.6126 46.7436C29.6583 47.3608 27.5933 47.5463 25.5603 47.2873C23.5272 47.0283 21.5747 46.331 19.8376 45.2436H19.8188Z" fill="url(#paint3_radial_1065_2679)"/>
<path d="M28.575 27.9C28.4062 28.0875 27.9375 28.3687 27.9375 28.95C27.9375 29.4375 28.2562 29.925 28.8375 30.3187C31.5187 32.1937 36.6 31.9313 36.6187 31.9313C38.6176 31.9299 40.5795 31.3925 42.3 30.375C44.0321 29.3619 45.4694 27.9136 46.4692 26.1737C47.469 24.4339 47.9967 22.4629 48 20.4562C48.0563 16.2563 46.5 13.4625 45.8812 12.225C41.8875 4.4625 33.3187 1.17495e-07 24 1.17495e-07C17.6929 -0.000623545 11.639 2.48156 7.14766 6.9097C2.65636 11.3378 0.0886943 17.356 0 23.6625C0.09375 16.8187 6.9 11.2875 15 11.2875C15.6562 11.2875 19.4062 11.3437 22.875 13.1625C25.312 14.3735 27.33 16.2871 28.6687 18.6562C29.8125 20.6437 30.0187 23.175 30.0187 24.1875C30.0187 25.2 29.5125 26.6812 28.5562 27.9187L28.575 27.9Z" fill="url(#paint4_radial_1065_2679)"/>
<path d="M28.575 27.9C28.4062 28.0875 27.9375 28.3687 27.9375 28.95C27.9375 29.4375 28.2562 29.925 28.8375 30.3187C31.5187 32.1937 36.6 31.9313 36.6187 31.9313C38.6176 31.9299 40.5795 31.3925 42.3 30.375C44.0321 29.3619 45.4694 27.9136 46.4692 26.1737C47.469 24.4339 47.9967 22.4629 48 20.4562C48.0563 16.2563 46.5 13.4625 45.8812 12.225C41.8875 4.4625 33.3187 1.17495e-07 24 1.17495e-07C17.6929 -0.000623545 11.639 2.48156 7.14766 6.9097C2.65636 11.3378 0.0886943 17.356 0 23.6625C0.09375 16.8187 6.9 11.2875 15 11.2875C15.6562 11.2875 19.4062 11.3437 22.875 13.1625C25.312 14.3735 27.33 16.2871 28.6687 18.6562C29.8125 20.6437 30.0187 23.175 30.0187 24.1875C30.0187 25.2 29.5125 26.6812 28.5562 27.9187L28.575 27.9Z" fill="url(#paint5_radial_1065_2679)"/>
</g>
<defs>
<linearGradient id="paint0_linear_1065_2679" x1="11.0063" y1="33.1875" x2="44.4563" y2="33.1875" gradientUnits="userSpaceOnUse">
<stop stop-color="#0C59A4"/>
<stop offset="1" stop-color="#114A8B"/>
</linearGradient>
<radialGradient id="paint1_radial_1065_2679" cx="0" cy="0" r="1" gradientUnits="userSpaceOnUse" gradientTransform="translate(29.4751 33.4397) scale(17.8875 16.9931)">
<stop offset="0.7" stop-opacity="0"/>
<stop offset="0.9" stop-opacity="0.5"/>
<stop offset="1"/>
</radialGradient>
<linearGradient id="paint2_linear_1065_2679" x1="28.6313" y1="18.6748" x2="7.76257" y2="41.4186" gradientUnits="userSpaceOnUse">
<stop stop-color="#1B9DE2"/>
<stop offset="0.2" stop-color="#1595DF"/>
<stop offset="0.7" stop-color="#0680D7"/>
<stop offset="1" stop-color="#0078D4"/>
</linearGradient>
<radialGradient id="paint3_radial_1065_2679" cx="0" cy="0" r="1" gradientUnits="userSpaceOnUse" gradientTransform="translate(13.2291 37.3005) rotate(-81.3844) scale(26.8849 21.7203)">
<stop offset="0.8" stop-opacity="0"/>
<stop offset="0.9" stop-opacity="0.5"/>
<stop offset="1"/>
</radialGradient>
<radialGradient id="paint4_radial_1065_2679" cx="0" cy="0" r="1" gradientUnits="userSpaceOnUse" gradientTransform="translate(4.85437 8.87175) rotate(92.2906) scale(37.9803 80.8903)">
<stop stop-color="#35C1F1"/>
<stop offset="0.1" stop-color="#34C1ED"/>
<stop offset="0.2" stop-color="#2FC2DF"/>
<stop offset="0.3" stop-color="#2BC3D2"/>
<stop offset="0.7" stop-color="#36C752"/>
</radialGradient>
<radialGradient id="paint5_radial_1065_2679" cx="0" cy="0" r="1" gradientUnits="userSpaceOnUse" gradientTransform="translate(45.0113 14.4937) rotate(73.7398) scale(18.2437 14.8358)">
<stop stop-color="#66EB6E"/>
<stop offset="1" stop-color="#66EB6E" stop-opacity="0"/>
</radialGradient>
<clipPath id="clip0_1065_2679">
<rect width="48" height="48" fill="white"/>
</clipPath>
</defs>
</svg>
