<svg width="48" height="48" viewBox="0 0 48 48" fill="none" xmlns="http://www.w3.org/2000/svg">
<path d="M37.7477 4.38574C36.6252 5.6928 36.1024 8.63445 37.2406 11.6165C38.3789 14.5985 40.1235 13.9509 41.211 16.9918C42.6464 21.0043 41.9783 26.3944 41.9783 26.3944C41.9783 26.3944 43.7039 31.3917 44.9064 26.0835C47.5681 16.113 37.7477 6.84101 37.7477 4.38574Z" fill="url(#paint0_radial_1065_2701)"/>
<path d="M24.0503 45.7799C35.5458 45.7799 44.8582 36.4172 44.8582 24.8724C44.8582 13.3276 35.5458 3.96484 24.0615 3.96484C12.5772 3.96484 3.26493 13.3276 3.26493 24.8724C3.24267 36.4283 12.566 45.7799 24.0503 45.7799Z" fill="url(#paint1_radial_1065_2701)"/>
<path d="M39.6411 37.764C39.1913 38.0814 38.7194 38.3662 38.2291 38.6164C38.8786 37.6646 39.4779 36.6795 40.0244 35.6651C40.4678 35.1743 40.8741 34.6972 41.2051 34.1813C41.3662 33.9279 41.5479 33.6151 41.7402 33.2523C42.9084 31.1476 44.1965 27.7415 44.233 24.2429V24.2345C44.2338 24.1484 44.2343 24.0622 44.2336 23.976C44.2397 23.0978 44.1499 22.2215 43.9659 21.3628C43.9753 21.4299 43.9835 21.4969 43.9919 21.5639C43.9816 21.5124 43.9729 21.4602 43.9618 21.4086C43.9789 21.5039 43.9927 21.5961 44.0075 21.689C44.2463 23.7148 44.0762 25.6909 43.2255 27.1476C43.2121 27.1689 43.1983 27.1888 43.1848 27.2097C43.6259 24.9956 43.7735 22.5509 43.2827 20.1034C43.2827 20.1034 43.0864 18.9136 41.6244 15.3015C40.7829 13.2224 39.2885 11.5179 37.9682 10.2762C36.8108 8.84431 35.7597 7.88342 35.1803 7.27334C33.9699 5.99886 33.4626 5.04355 33.2543 4.4202C33.0737 4.32964 30.7636 2.0855 30.5801 2C29.5718 3.56337 26.4006 8.45352 27.9091 13.0225C28.5928 15.093 30.3216 17.242 32.131 18.4476C32.2105 18.5383 33.2077 19.6214 33.6819 22.0643C34.1716 24.5882 33.9141 26.5575 32.9063 29.4698C31.7211 32.0247 28.6844 34.5505 25.8411 34.8088C19.7626 35.3611 17.5373 31.7569 17.5373 31.7569C19.7093 32.6253 22.1108 32.4436 23.5712 31.5433C25.0431 30.6328 25.9334 29.9577 26.6561 30.2239C27.3686 30.4889 27.9358 29.7197 27.4268 28.9223C27.0337 28.3169 26.4713 27.8405 25.8095 27.5524C25.1478 27.2642 24.4158 27.177 23.7049 27.3017C22.2315 27.5412 20.8818 28.7084 18.9512 27.578C18.8263 27.5055 18.7053 27.4263 18.5889 27.3407C18.4617 27.257 19.0026 27.4681 18.8764 27.373C18.5007 27.1689 17.8358 26.7241 17.6633 26.5659C17.6345 26.5396 17.9548 26.6681 17.9261 26.6417C16.1209 25.1552 16.3464 24.151 16.4031 23.5212C16.4485 23.0173 16.7764 22.3717 17.3289 22.1098C17.5958 22.2554 17.762 22.3666 17.762 22.3666C17.762 22.3666 17.6482 22.1341 17.5867 22.0115C17.6083 22.0021 17.6289 22.0046 17.6503 21.9955C17.869 22.101 18.3524 22.3752 18.6069 22.5424C18.9384 22.7762 19.0441 22.9847 19.0441 22.9847C19.0441 22.9847 19.1314 22.9366 19.0668 22.7327C19.0434 22.6491 18.9427 22.3834 18.6144 22.1152L18.6349 22.1175C18.8314 22.2295 19.0176 22.3587 19.1912 22.5038C19.2838 22.1672 19.4503 21.8157 19.4136 21.187C19.3913 20.7449 19.4016 20.6304 19.3237 20.4597C19.2539 20.3131 19.3628 20.2559 19.4839 20.4081C19.4632 20.2888 19.4284 20.1724 19.3804 20.0613L19.3814 20.0498C19.5326 19.5231 22.5806 18.1532 22.8024 17.9931C23.1669 17.7352 23.4726 17.4029 23.6992 17.0181C23.8688 16.748 23.9963 16.369 24.0274 15.7941C24.044 15.3795 23.8512 15.1034 20.7692 14.7808C19.9264 14.6977 19.4318 14.087 19.1508 13.5234C19.0995 13.402 19.0473 13.292 18.995 13.1821C18.945 13.0536 18.9049 12.9215 18.875 12.7869C19.3789 11.3397 20.2255 10.1161 21.4704 9.19156C21.5382 9.12978 21.1993 9.20741 21.2671 9.14563C21.3462 9.07353 21.8627 8.86545 21.9603 8.81858C22.0794 8.76233 21.4502 8.49514 20.8947 8.5602C20.329 8.62395 20.2088 8.69145 19.9069 8.81947C20.0322 8.69473 20.4306 8.53123 20.3372 8.53231C19.7273 8.62583 18.9695 8.98034 18.3216 9.38188C18.3203 9.31195 18.3337 9.24254 18.3607 9.17806C18.0588 9.30613 17.3173 9.82438 17.1014 10.2628C17.1107 10.1788 17.1149 10.0943 17.1139 10.0097C16.8839 10.2015 16.6764 10.4188 16.4954 10.6574L16.4841 10.6677C14.7329 9.96223 13.1919 9.91658 11.8879 10.2329C11.6026 9.94639 11.4632 10.1558 10.8141 8.72966C10.77 8.64378 10.8479 8.81445 10.8141 8.72966C10.7073 8.45309 10.8792 9.09866 10.8141 8.72966C9.72266 9.59084 8.2866 10.5668 7.59725 11.2558C7.58872 11.2832 8.40144 11.0261 7.59725 11.2558C7.31563 11.3362 7.33475 11.5033 7.29195 13.0136C7.28164 13.1281 7.29078 13.2563 7.2815 13.3594C6.73081 14.061 6.35577 14.6552 6.21392 14.963C5.50175 16.1902 4.71739 18.1033 3.95708 21.1295C4.29244 20.3092 4.69676 19.5189 5.1657 18.767C4.53345 20.3732 3.92225 22.8956 3.80005 26.78C3.95299 25.9784 4.14911 25.1857 4.38753 24.4053C4.23827 27.6279 4.79401 30.8443 6.01597 33.83C6.45327 34.8998 7.1766 36.5233 8.40795 38.3019C12.2767 42.3725 17.7335 44.9066 23.776 44.9066C30.0841 44.9067 35.7486 42.1467 39.6411 37.764Z" fill="url(#paint2_linear_1065_2701)"/>
<path d="M34.9734 40.7205C42.6079 39.8364 45.9876 31.9689 41.6475 31.8142C37.7272 31.6889 31.3572 41.1377 34.9734 40.7205Z" fill="url(#paint3_radial_1065_2701)"/>
<path d="M42.1972 30.2074C47.4498 27.1505 46.0803 20.5474 46.0803 20.5474C46.0803 20.5474 44.0531 22.9023 42.676 26.6561C41.3156 30.3733 39.0392 32.0537 42.1972 30.2074Z" fill="url(#paint4_radial_1065_2701)"/>
<path d="M25.5223 44.6277C32.8454 46.9645 39.1394 41.1955 35.2597 39.269C31.7323 37.5315 22.0465 43.5228 25.5223 44.6277Z" fill="url(#paint5_radial_1065_2701)"/>
<path d="M42.7429 33.011C42.921 32.7596 43.162 31.9546 43.3748 31.5948C44.6677 29.5078 44.6768 27.8438 44.6768 27.8056C45.4577 23.9048 45.3869 22.3119 44.9065 19.3661C44.5198 16.9943 42.8289 13.5962 41.3642 11.9599C39.8548 10.274 40.9182 10.8233 39.4567 9.59184C38.1758 8.17186 36.9338 6.7657 36.2574 6.2002C31.3695 2.11378 31.4799 1.2458 31.574 1.09781C31.5581 1.1152 31.5348 1.14103 31.505 1.17483C31.4471 0.944063 31.4062 0.75 31.4062 0.75C31.4062 0.75 28.7344 3.42188 28.1719 7.875C27.8047 10.7822 28.893 13.8129 30.4688 15.75C31.2893 16.7539 32.2166 17.6655 33.2344 18.4688V18.4675C34.425 20.1774 35.0803 22.2873 35.0803 24.557C35.0803 30.2403 30.4706 34.8475 24.7841 34.8475C24.0091 34.8479 23.2366 34.7612 22.481 34.5888C19.798 34.0775 18.2487 32.7241 17.476 31.8053C17.0332 31.2787 16.8449 30.8948 16.8449 30.8948C19.2488 31.756 21.9067 31.5758 23.5231 30.6831C25.152 29.78 26.1375 29.1106 26.9373 29.3745C27.7258 29.6373 28.3535 28.8745 27.7905 28.0838C27.2387 27.2942 25.803 26.1633 23.6712 26.4766C22.0404 26.7142 20.5466 27.8716 18.4099 26.7506C18.2723 26.6791 18.1385 26.6006 18.009 26.5153C17.8681 26.4323 18.4668 26.6416 18.3271 26.5473C17.9113 26.3449 17.1752 25.9038 16.9845 25.7469C16.9526 25.7208 17.3071 25.8482 17.2751 25.8219C15.2772 24.3478 15.5266 23.352 15.5895 22.7273C15.6398 22.2277 16.0027 21.5873 16.6141 21.3277C16.9095 21.4721 17.0935 21.5823 17.0935 21.5823C17.0935 21.5823 16.9675 21.3517 16.8994 21.2302C16.9232 21.2211 16.946 21.2234 16.9697 21.2143C17.2117 21.3189 17.7467 21.5906 18.0284 21.7566C18.3953 21.9885 18.5123 22.1953 18.5123 22.1953C18.5123 22.1953 18.6089 22.1476 18.5374 21.9454C18.5113 21.8625 18.4001 21.599 18.0367 21.333L18.0594 21.3353C18.2751 21.4453 18.4811 21.5734 18.675 21.7184C18.7775 21.3846 18.9618 21.036 18.9213 20.4125C18.8965 19.9741 18.908 19.8606 18.8217 19.6913C18.7445 19.546 18.865 19.4892 18.999 19.6403C18.9758 19.5211 18.9373 19.4054 18.8844 19.2961L18.8856 19.2847C19.053 18.7624 22.4263 17.4039 22.6718 17.2451C23.0675 16.9967 23.4058 16.6671 23.6644 16.278C23.8519 16.0102 23.9932 15.6343 24.0276 15.0642C24.0391 14.8073 23.9601 14.604 23.0667 14.4096C22.5305 14.2929 21.7009 14.1793 20.4214 14.0593C19.4886 13.977 18.9412 13.3713 18.6302 12.8124C18.5734 12.692 18.5156 12.5827 18.4577 12.4739C18.4027 12.3471 18.3583 12.2161 18.325 12.082C18.8832 10.6207 19.8884 9.37293 21.1974 8.51653C21.2724 8.45522 20.8974 8.53223 20.9724 8.47097C21.06 8.39948 21.6316 8.19314 21.7396 8.14664C21.8715 8.09105 21.1751 7.82602 20.5603 7.89042C19.9342 7.95366 19.8012 8.02055 19.467 8.14758C19.6057 8.02388 20.0467 7.86164 19.9433 7.86281C19.2683 7.95553 18.4293 8.30714 17.7121 8.7053C17.7108 8.63549 17.7256 8.56632 17.7554 8.50317C17.4212 8.63016 16.6005 9.14414 16.3616 9.57895C16.3719 9.49571 16.3765 9.41186 16.3754 9.32798C16.1238 9.51552 15.8942 9.73096 15.691 9.97017L15.6785 9.98039C13.7404 9.28078 12.0348 9.2355 10.5915 9.54914C10.2758 9.26503 9.76814 8.83542 9.04973 7.42102C9.00094 7.33584 8.97473 7.59703 8.93723 7.51294C8.65809 6.86545 8.48944 5.80463 8.51714 5.07328C8.51714 5.07328 7.93973 5.33644 7.46184 6.43547C7.37311 6.63305 7.3162 6.74203 7.25934 6.85102C7.23319 6.8828 7.31864 6.49008 7.305 6.51145C7.22194 6.65208 7.00706 6.84858 6.91261 7.10292C6.84773 7.29141 6.75675 7.39697 6.69867 7.63205L6.68503 7.65361C6.68034 7.58433 6.70223 7.36856 6.6863 7.41281C6.4623 7.86537 6.26954 8.33273 6.10936 8.81161C5.85206 9.65752 5.55253 10.809 5.50505 12.3068C5.49361 12.4204 5.50378 12.5476 5.49347 12.6498C4.88409 13.3456 4.46887 13.9348 4.31189 14.2402C3.52406 15.4576 2.65594 17.3548 1.81439 20.3559C2.1888 19.5361 2.63653 18.7518 3.15211 18.0127C2.45231 19.6056 1.77586 22.1071 1.64062 25.9594C1.81049 25.1622 2.02763 24.3758 2.29088 23.6044C2.17003 26.1731 2.46923 29.3578 4.09317 32.9509C5.05739 35.0644 7.27697 39.3563 12.7004 42.7056L12.6999 42.7059C12.6999 42.7059 14.5449 44.0794 17.7163 45.1087C17.9507 45.1937 18.1881 45.2775 18.4304 45.3587C18.3544 45.328 18.2808 45.2957 18.2094 45.2625C20.3203 45.895 22.512 46.2171 24.7156 46.2188C32.9272 46.2257 35.349 42.9281 35.349 42.9281C35.349 42.9281 35.3405 42.9345 35.325 42.9458C35.4409 42.8367 35.5525 42.7233 35.6598 42.6056C34.3643 43.8291 31.4076 43.9103 30.302 43.822C32.1875 43.2682 33.4282 42.7998 35.8415 41.8758C36.1239 41.7711 36.4127 41.6517 36.7078 41.5177C36.7397 41.5036 36.7719 41.4884 36.804 41.4738C36.8625 41.4465 36.9205 41.4207 36.9796 41.392C38.1555 40.8379 39.2611 40.1458 40.2732 39.3301C42.6966 37.3942 43.2239 35.5072 43.4995 34.263C43.4611 34.3822 43.3413 34.6602 43.2572 34.8403C42.633 36.1754 41.249 36.9946 39.7459 37.6972C40.4612 36.7587 41.1245 35.7817 41.7328 34.7706C42.2235 34.2839 42.3765 33.5226 42.7429 33.011Z" fill="url(#paint6_radial_1065_2701)"/>
<path d="M39.7933 37.6398C40.7814 36.5504 41.6687 35.3043 42.3409 33.8913C44.0706 30.2546 46.7449 24.2078 44.6386 17.8926C42.9739 12.9012 40.6883 10.1719 37.7864 7.50572C33.0734 3.17606 31.7571 1.24317 31.7571 0.09375C31.7571 0.09375 26.3154 6.1598 28.6754 12.4866C31.0354 18.8134 35.8688 18.5815 39.0666 25.1838C42.8295 32.9531 36.0221 41.4314 30.3927 43.8044C30.7373 43.7278 42.9069 40.9739 43.5465 34.013C43.532 34.141 43.2577 36.0663 39.7933 37.6398Z" fill="url(#paint7_radial_1065_2701)"/>
<path d="M24.0278 15.0643C24.0462 14.6533 23.833 14.3772 20.4333 14.0583C19.0346 13.9291 18.499 12.6364 18.3357 12.0923C17.8384 13.3844 17.633 14.7403 17.7434 16.3803C17.8189 17.4546 18.5407 18.6078 18.8858 19.2849C18.8858 19.2849 18.9625 19.1852 18.9979 19.1484C19.6476 18.4719 22.3699 17.4412 22.6256 17.2949C22.9075 17.1168 23.9804 16.3329 24.0278 15.0643Z" fill="url(#paint8_linear_1065_2701)"/>
<path d="M9.06153 7.42815C9.01273 7.34293 8.98653 7.60412 8.94903 7.52007C8.66989 6.87259 8.50006 5.8232 8.54028 5.08154C8.54028 5.08154 7.96287 5.3447 7.48498 6.44373C7.39625 6.64131 7.33934 6.75029 7.28248 6.85928C7.25633 6.89106 7.34178 6.49834 7.32814 6.51971C7.24512 6.66034 7.03025 6.85684 6.93692 7.09979C6.85953 7.2985 6.77994 7.40518 6.72069 7.65161C6.70245 7.71859 6.73906 7.35521 6.72312 7.39946C5.61167 9.54751 5.39951 12.7954 5.51665 12.6581C7.88281 10.1315 10.5944 9.53232 10.5944 9.53232C10.3059 9.31979 9.67901 8.70615 9.06158 7.42815H9.06153Z" fill="url(#paint9_linear_1065_2701)"/>
<path d="M18.0395 33.8484C14.7712 32.453 11.0555 30.4849 11.1957 26.0138C11.3868 20.1254 16.6869 21.2892 16.6869 21.2892C16.4869 21.3379 15.9522 21.7187 15.7626 22.1245C15.5623 22.632 15.1969 23.7781 16.3041 24.9792C18.0426 26.8632 12.7322 29.449 20.9289 34.3339C21.1356 34.4464 19.0075 34.2669 18.0396 33.8484H18.0395Z" fill="url(#paint10_linear_1065_2701)"/>
<path d="M16.8786 30.914C19.1962 31.7206 21.8961 31.5791 23.5125 30.6863C24.5946 30.0839 25.9828 29.1191 26.8369 29.3573C26.0974 29.0649 25.5373 28.9283 24.8635 28.895C24.7487 28.895 24.6112 28.8925 24.4862 28.88C24.2395 28.8792 23.9928 28.8927 23.7476 28.9204C23.3304 28.9588 22.868 29.222 22.4475 29.1797C22.4248 29.1774 22.8554 29.0028 22.8203 29.0108C22.5976 29.0572 22.3556 29.0672 22.0999 29.0989C21.9374 29.117 21.7976 29.1374 21.6362 29.1441C16.809 29.5534 12.7292 26.5278 12.7292 26.5278C12.3819 27.6974 14.2838 30.0106 16.8786 30.914H16.8786Z" fill="url(#paint11_linear_1065_2701)"/>
<path d="M39.7846 37.671C44.6672 32.8771 47.1375 27.0498 46.0932 20.5139C46.0932 20.5139 46.5104 23.8654 44.9284 27.2933C45.6884 23.9468 45.7769 19.788 43.7577 15.4814C41.0627 9.73304 36.6305 6.70833 34.9383 5.44646C32.3745 3.53447 31.3117 1.58775 31.2925 1.18604C30.5266 2.75527 28.2098 8.13291 31.0436 12.7642C33.6986 17.1031 37.8811 18.391 40.809 22.3711C46.2031 29.7032 39.7846 37.671 39.7846 37.671Z" fill="url(#paint12_linear_1065_2701)"/>
<path d="M39.085 25.1977C37.3787 21.6727 35.249 20.1352 33.2344 18.4688C33.4687 18.7969 33.5265 18.9128 33.6562 19.125C35.4294 21.0148 38.0441 25.6245 36.1458 31.4113C32.5725 42.3038 18.2797 37.1745 16.7812 35.7337C17.3874 42.0379 27.9392 45.0546 34.8094 40.9664C38.7187 37.2656 41.8813 30.9744 39.085 25.1977Z" fill="url(#paint13_linear_1065_2701)"/>
<defs>
<radialGradient id="paint0_radial_1065_2701" cx="0" cy="0" r="1" gradientUnits="userSpaceOnUse" gradientTransform="translate(44.212 11.6344) rotate(2.55481) scale(16.1207 23.6945)">
<stop offset="0.045" stop-color="#FFEA00"/>
<stop offset="0.12" stop-color="#FFDE00"/>
<stop offset="0.254" stop-color="#FFBF00"/>
<stop offset="0.429" stop-color="#FF8E00"/>
<stop offset="0.769" stop-color="#FF272D"/>
<stop offset="0.872" stop-color="#E0255A"/>
<stop offset="0.953" stop-color="#CC2477"/>
<stop offset="1" stop-color="#C42482"/>
</radialGradient>
<radialGradient id="paint1_radial_1065_2701" cx="0" cy="0" r="1" gradientUnits="userSpaceOnUse" gradientTransform="translate(32.7244 9.14689) scale(45.4339 45.4339)">
<stop stop-color="#00CCDA"/>
<stop offset="0.22" stop-color="#0083FF"/>
<stop offset="0.261" stop-color="#007AF9"/>
<stop offset="0.33" stop-color="#0060E8"/>
<stop offset="0.333" stop-color="#005FE7"/>
<stop offset="0.438" stop-color="#2639AD"/>
<stop offset="0.522" stop-color="#401E84"/>
<stop offset="0.566" stop-color="#4A1475"/>
</radialGradient>
<linearGradient id="paint2_linear_1065_2701" x1="26.9846" y1="34.2743" x2="18.0109" y2="4.91984" gradientUnits="userSpaceOnUse">
<stop stop-color="#000F43" stop-opacity="0.4"/>
<stop offset="0.485" stop-color="#001962" stop-opacity="0.173"/>
<stop offset="1" stop-color="#002079" stop-opacity="0"/>
</linearGradient>
<radialGradient id="paint3_radial_1065_2701" cx="0" cy="0" r="1" gradientUnits="userSpaceOnUse" gradientTransform="translate(48.1741 29.8804) rotate(5.76178) scale(15.3275 15.3275)">
<stop offset="0.003" stop-color="#FFEA00"/>
<stop offset="0.497" stop-color="#FF272D"/>
<stop offset="1" stop-color="#C42482"/>
</radialGradient>
<radialGradient id="paint4_radial_1065_2701" cx="0" cy="0" r="1" gradientUnits="userSpaceOnUse" gradientTransform="translate(48.2699 15.1184) rotate(5.76178) scale(25.5956 25.5956)">
<stop offset="0.003" stop-color="#FFE900"/>
<stop offset="0.157" stop-color="#FFAF0E"/>
<stop offset="0.316" stop-color="#FF7A1B"/>
<stop offset="0.472" stop-color="#FF4E26"/>
<stop offset="0.621" stop-color="#FF2C2E"/>
<stop offset="0.762" stop-color="#FF1434"/>
<stop offset="0.892" stop-color="#FF0538"/>
<stop offset="1" stop-color="#FF0039"/>
</radialGradient>
<radialGradient id="paint5_radial_1065_2701" cx="0" cy="0" r="1" gradientUnits="userSpaceOnUse" gradientTransform="translate(49.4898 39.0885) rotate(5.76178) scale(23.4868 23.4868)">
<stop offset="0.003" stop-color="#FF272D"/>
<stop offset="0.497" stop-color="#C42482"/>
<stop offset="0.986" stop-color="#620700"/>
</radialGradient>
<radialGradient id="paint6_radial_1065_2701" cx="0" cy="0" r="1" gradientUnits="userSpaceOnUse" gradientTransform="translate(35.1651 18.5644) scale(36.6647)">
<stop offset="0.156" stop-color="#FFEA00"/>
<stop offset="0.231" stop-color="#FFDE00"/>
<stop offset="0.365" stop-color="#FFBF00"/>
<stop offset="0.541" stop-color="#FF8E00"/>
<stop offset="0.763" stop-color="#FF272D"/>
<stop offset="0.796" stop-color="#F92433"/>
<stop offset="0.841" stop-color="#E91C45"/>
<stop offset="0.893" stop-color="#CF0E62"/>
<stop offset="0.935" stop-color="#B5007F"/>
</radialGradient>
<radialGradient id="paint7_radial_1065_2701" cx="0" cy="0" r="1" gradientUnits="userSpaceOnUse" gradientTransform="translate(32.4066 0.154171) scale(43.2945 43.2945)">
<stop offset="0.279" stop-color="#FFEA00"/>
<stop offset="0.402" stop-color="#FFDD00"/>
<stop offset="0.63" stop-color="#FFBA00"/>
<stop offset="0.856" stop-color="#FF9100"/>
<stop offset="0.933" stop-color="#FF6711"/>
<stop offset="0.994" stop-color="#FF4A1D"/>
</radialGradient>
<linearGradient id="paint8_linear_1065_2701" x1="10.0359" y1="16.7283" x2="26.7024" y2="14.226" gradientUnits="userSpaceOnUse">
<stop stop-color="#C42482" stop-opacity="0.5"/>
<stop offset="0.474" stop-color="#FF272D" stop-opacity="0.5"/>
<stop offset="0.486" stop-color="#FF2C2C" stop-opacity="0.513"/>
<stop offset="0.675" stop-color="#FF7A1A" stop-opacity="0.72"/>
<stop offset="0.829" stop-color="#FFB20D" stop-opacity="0.871"/>
<stop offset="0.942" stop-color="#FFD605" stop-opacity="0.964"/>
<stop offset="1" stop-color="#FFE302"/>
</linearGradient>
<linearGradient id="paint9_linear_1065_2701" x1="8.373" y1="12.2752" x2="6.48326" y2="5.4968" gradientUnits="userSpaceOnUse">
<stop stop-color="#891551" stop-opacity="0.6"/>
<stop offset="1" stop-color="#C42482" stop-opacity="0"/>
</linearGradient>
<linearGradient id="paint10_linear_1065_2701" x1="11.959" y1="22.0954" x2="15.848" y2="27.5212" gradientUnits="userSpaceOnUse">
<stop offset="0.005" stop-color="#891551" stop-opacity="0.5"/>
<stop offset="0.484" stop-color="#FF272D" stop-opacity="0.5"/>
<stop offset="1" stop-color="#FF272D" stop-opacity="0"/>
</linearGradient>
<linearGradient id="paint11_linear_1065_2701" x1="19.3947" y1="31.5941" x2="19.7478" y2="28.1066" gradientUnits="userSpaceOnUse">
<stop stop-color="#C42482"/>
<stop offset="0.083" stop-color="#C42482" stop-opacity="0.81"/>
<stop offset="0.206" stop-color="#C42482" stop-opacity="0.565"/>
<stop offset="0.328" stop-color="#C42482" stop-opacity="0.362"/>
<stop offset="0.447" stop-color="#C42482" stop-opacity="0.204"/>
<stop offset="0.562" stop-color="#C42482" stop-opacity="0.091"/>
<stop offset="0.673" stop-color="#C42482" stop-opacity="0.023"/>
<stop offset="0.773" stop-color="#C42482" stop-opacity="0"/>
</linearGradient>
<linearGradient id="paint12_linear_1065_2701" x1="30.728" y1="1.78697" x2="45.0556" y2="33.8258" gradientUnits="userSpaceOnUse">
<stop stop-color="#FFF14F"/>
<stop offset="0.268" stop-color="#FFEE4C"/>
<stop offset="0.452" stop-color="#FFE643"/>
<stop offset="0.612" stop-color="#FFD834"/>
<stop offset="0.757" stop-color="#FFC41E"/>
<stop offset="0.892" stop-color="#FFAB02"/>
<stop offset="0.902" stop-color="#FFA900"/>
<stop offset="0.949" stop-color="#FFA000"/>
<stop offset="1" stop-color="#FF9100"/>
</linearGradient>
<linearGradient id="paint13_linear_1065_2701" x1="33.5571" y1="20.213" x2="26.7702" y2="38.4356" gradientUnits="userSpaceOnUse">
<stop stop-color="#FF8E00"/>
<stop offset="0.04" stop-color="#FF8E00" stop-opacity="0.858"/>
<stop offset="0.084" stop-color="#FF8E00" stop-opacity="0.729"/>
<stop offset="0.13" stop-color="#FF8E00" stop-opacity="0.628"/>
<stop offset="0.178" stop-color="#FF8E00" stop-opacity="0.557"/>
<stop offset="0.227" stop-color="#FF8E00" stop-opacity="0.514"/>
<stop offset="0.282" stop-color="#FF8E00" stop-opacity="0.5"/>
<stop offset="0.389" stop-color="#FF8E00" stop-opacity="0.478"/>
<stop offset="0.524" stop-color="#FF8E00" stop-opacity="0.416"/>
<stop offset="0.676" stop-color="#FF8E00" stop-opacity="0.314"/>
<stop offset="0.838" stop-color="#FF8E00" stop-opacity="0.172"/>
<stop offset="1" stop-color="#FF8E00" stop-opacity="0"/>
</linearGradient>
</defs>
</svg>
