<?xml version="1.0" standalone="no"?>
<!DOCTYPE svg PUBLIC "-//W3C//DTD SVG 20010904//EN"
 "http://www.w3.org/TR/2001/REC-SVG-20010904/DTD/svg10.dtd">
<svg version="1.0" xmlns="http://www.w3.org/2000/svg"
 width="960.000000pt" height="960.000000pt" viewBox="0 0 960.000000 960.000000"
 preserveAspectRatio="xMidYMid meet">
<metadata>
Created by potrace 1.14, written by Peter Selinger 2001-2017
</metadata>
<g transform="translate(0.000000,960.000000) scale(0.100000,-0.100000)"
fill="#000000" stroke="none">
<path d="M4538 9595 c-1 -1 -50 -6 -108 -9 -58 -4 -112 -9 -120 -11 -8 -2 -44
-6 -80 -10 -105 -9 -281 -38 -435 -71 -38 -9 -81 -18 -94 -20 -40 -8 -43 -13
-36 -72 18 -174 89 -365 195 -527 51 -78 195 -230 275 -291 130 -99 349 -196
498 -219 17 -3 55 -9 84 -14 56 -9 257 -6 313 4 350 62 614 226 812 505 79
112 164 300 183 409 3 19 7 37 9 40 2 3 7 34 11 67 l6 62 -78 16 c-43 10 -89
21 -103 26 -21 7 -106 25 -175 36 -11 2 -72 12 -135 23 -118 19 -176 27 -290
37 -36 3 -76 7 -90 10 -27 6 -636 15 -642 9z"/>
<path d="M2310 8907 c-19 -13 -82 -54 -140 -92 -100 -64 -371 -264 -435 -320
-16 -14 -43 -37 -60 -52 -146 -125 -351 -328 -480 -474 -171 -193 -405 -512
-510 -696 l-19 -32 30 -27 c48 -42 174 -123 249 -158 81 -39 214 -85 262 -91
19 -2 37 -6 41 -9 25 -15 254 -23 342 -11 95 12 113 15 190 36 93 25 111 32
230 92 397 198 655 621 652 1067 -1 194 -41 358 -129 536 -47 95 -158 254
-177 254 -6 0 -27 -10 -46 -23z"/>
<path d="M7256 8807 c-91 -136 -156 -293 -187 -452 -20 -102 -18 -349 5 -453
98 -460 432 -810 881 -927 273 -70 578 -38 830 87 65 33 185 109 185 118 0 3
-42 71 -93 153 -199 318 -421 598 -692 870 -76 76 -306 283 -369 332 -22 17
-62 48 -90 70 -94 75 -309 225 -379 264 l-36 20 -55 -82z"/>
<path d="M4757 7144 c-1 -1 -53 -5 -116 -9 -63 -3 -118 -8 -121 -10 -4 -3 -34
-7 -66 -11 -32 -3 -62 -8 -65 -10 -3 -2 -19 -6 -35 -8 -58 -11 -75 -15 -170
-41 -106 -29 -234 -73 -249 -87 -5 -4 -15 -8 -22 -8 -22 0 -219 -99 -326 -163
-459 -276 -821 -712 -1005 -1212 -66 -178 -96 -295 -128 -490 -26 -160 -26
-566 0 -702 3 -11 8 -43 12 -70 3 -26 8 -55 10 -63 135 -606 431 -1066 939
-1457 32 -25 164 -113 169 -113 4 0 25 -11 47 -26 211 -133 564 -254 869 -299
164 -24 517 -24 650 -1 14 3 41 7 60 10 258 38 594 158 814 288 l59 35 837
-837 838 -838 24 17 c13 9 37 27 53 41 16 14 63 54 104 90 217 184 479 460
651 683 12 17 -56 88 -830 862 l-843 843 50 98 c99 194 188 452 219 639 2 17
7 39 9 51 2 11 7 45 11 75 3 30 9 79 14 109 7 53 5 421 -4 470 -2 14 -7 48
-10 75 -4 28 -8 57 -11 65 -2 8 -7 35 -10 59 -4 23 -10 54 -15 67 -5 13 -7 24
-5 24 2 0 0 11 -5 25 -5 14 -12 37 -14 51 -25 135 -152 434 -263 617 -108 179
-198 293 -362 458 -233 235 -462 386 -816 539 -97 42 -366 113 -515 136 -25 3
-54 8 -65 10 -45 9 -361 24 -368 18z m299 -1172 c236 -53 424 -159 599 -336
221 -224 333 -488 341 -806 5 -216 -32 -384 -130 -577 -153 -306 -472 -555
-796 -622 -30 -6 -66 -14 -80 -17 -14 -3 -80 -7 -148 -10 -589 -22 -1098 380
-1218 961 -18 91 -22 135 -19 255 2 80 6 156 9 170 3 14 11 50 17 80 17 81 55
183 107 285 167 325 493 564 857 628 116 21 345 15 461 -11z"/>
<path d="M136 5928 c-14 -40 -51 -209 -61 -280 -2 -15 -8 -53 -14 -85 -12 -69
-17 -108 -26 -188 -4 -33 -8 -70 -10 -83 -20 -127 -27 -693 -11 -862 15 -163
20 -210 31 -285 3 -16 7 -48 10 -70 3 -22 7 -47 10 -55 2 -8 6 -33 9 -55 6
-48 27 -149 63 -303 l26 -114 51 6 c277 32 565 189 756 412 116 134 230 359
255 503 3 19 8 37 10 41 9 15 20 164 18 267 -3 302 -129 593 -353 815 -111
110 -230 192 -361 249 -157 68 -393 119 -403 87z"/>
<path d="M9353 5904 c-276 -70 -534 -253 -694 -494 -203 -307 -256 -687 -143
-1045 28 -88 113 -249 178 -336 171 -227 419 -391 688 -454 l57 -13 30 127
c36 153 60 274 77 390 4 25 8 54 10 63 1 9 6 48 9 85 4 37 8 75 10 83 11 43
20 255 19 490 0 297 -10 458 -39 655 -3 17 -7 48 -10 70 -3 22 -7 47 -10 55
-2 8 -6 33 -9 55 -2 22 -16 94 -30 160 -14 66 -26 123 -26 126 0 10 -22 6
-117 -17z"/>
<path d="M1338 2545 c-2 -2 -25 -5 -53 -9 -57 -7 -175 -38 -253 -66 -78 -29
-147 -66 -240 -127 l-83 -55 22 -36 c88 -145 275 -400 412 -561 262 -306 572
-590 885 -811 143 -101 383 -249 396 -244 26 11 124 189 164 299 150 409 71
852 -211 1190 -54 64 -232 225 -249 225 -4 0 -31 15 -60 33 -182 111 -385 166
-615 165 -62 -1 -114 -2 -115 -3z"/>
<path d="M4797 1144 c-1 -1 -30 -5 -65 -8 -221 -22 -450 -115 -618 -250 -79
-63 -202 -195 -249 -266 -68 -103 -149 -279 -170 -370 -3 -10 -18 -85 -21
-101 -2 -14 18 -21 104 -39 59 -13 116 -24 127 -26 11 -2 72 -12 135 -23 63
-10 142 -22 175 -25 122 -13 152 -16 235 -23 170 -15 670 -9 825 11 17 2 59 7
95 11 76 8 104 11 145 18 17 3 50 9 75 12 25 4 54 9 65 11 11 2 34 7 50 10 17
3 58 11 91 19 34 8 73 16 85 19 37 7 122 26 140 32 20 5 15 31 -27 165 -53
169 -154 332 -288 464 -50 50 -100 97 -111 105 -176 135 -386 220 -600 245
-50 6 -194 12 -198 9z"/>
</g>
</svg>
